<?xml version="1.0" standalone="no"?>
<!DOCTYPE svg PUBLIC "-//W3C//DTD SVG 20010904//EN"
 "http://www.w3.org/TR/2001/REC-SVG-20010904/DTD/svg10.dtd">
<svg version="1.0" xmlns="http://www.w3.org/2000/svg"
 width="300.000000pt" height="82.000000pt" viewBox="0 0 300.000000 82.000000"
 preserveAspectRatio="xMidYMid meet">
<metadata>
Created by potrace 1.10, written by Peter Selinger 2001-2011
</metadata>
<g transform="translate(0.000000,82.000000) scale(0.100000,-0.100000)"
fill="#000000" stroke="none">
<path d="M80 415 l0 -335 708 2 707 3 0 330 0 330 -707 3 -708 2 0 -335z m313
114 c25 -14 37 -28 37 -46 0 -16 -52 -17 -67 -2 -13 13 -43 5 -43 -10 0 -5 23
-17 50 -26 74 -25 91 -71 44 -119 -30 -30 -70 -34 -114 -11 -29 15 -46 47 -35
65 9 15 41 12 55 -5 17 -21 52 -20 48 2 -2 10 -18 21 -38 26 -47 12 -70 34
-70 69 0 57 73 88 133 57z m147 -46 c8 -29 17 -53 21 -53 3 0 13 25 23 56 17
53 19 55 48 52 29 -3 33 -8 52 -63 l20 -60 20 63 c19 60 21 62 54 62 30 0 33
-2 27 -22 -63 -206 -64 -208 -99 -208 -31 0 -34 2 -51 60 -10 33 -21 58 -24
55 -3 -4 -12 -29 -21 -58 -15 -49 -18 -52 -50 -55 l-35 -3 -33 108 c-18 60
-33 112 -32 116 0 5 15 7 32 5 30 -3 34 -7 48 -55z m360 -58 l0 -115 -29 0
-29 0 -4 108 c-2 59 -2 110 0 115 2 4 16 7 33 7 l29 0 0 -115z m200 85 c0 -28
-2 -30 -40 -30 -33 0 -40 -3 -40 -20 0 -16 7 -20 35 -20 32 0 35 -2 35 -30 0
-28 -3 -30 -35 -30 -33 0 -35 -2 -35 -35 0 -33 -2 -35 -35 -35 l-35 0 0 115 0
115 75 0 75 0 0 -30z m220 1 c0 -26 -4 -30 -32 -33 l-33 -3 4 -82 3 -83 -35 0
-36 0 -3 83 -3 82 -32 3 c-27 3 -33 8 -33 26 0 12 3 26 7 29 3 4 48 7 100 7
l93 0 0 -29z"/>
<path d="M1670 520 c-38 -38 -19 -83 40 -101 44 -13 65 -32 55 -49 -9 -15 -45
-12 -51 5 -7 17 -64 21 -64 5 0 -6 11 -22 25 -35 34 -35 96 -35 130 0 14 13
25 31 25 38 0 25 -33 56 -75 70 -44 15 -53 40 -17 45 12 2 22 -1 22 -7 0 -6
14 -11 30 -11 19 0 30 5 30 14 0 44 -113 63 -150 26z"/>
<path d="M1856 524 c-11 -27 -7 -33 27 -36 l32 -3 3 -82 3 -83 29 0 29 0 3 83
3 82 33 3 c26 3 32 7 32 28 0 24 -1 24 -94 24 -76 0 -95 -3 -100 -16z"/>
<path d="M2109 466 c27 -48 41 -86 41 -110 0 -33 2 -36 30 -36 29 0 30 2 30
42 0 28 11 61 35 105 19 35 35 66 35 68 0 3 -14 5 -30 5 -25 0 -33 -6 -47 -35
-9 -19 -20 -35 -25 -35 -5 0 -16 16 -25 35 -14 30 -22 35 -51 35 l-33 0 40
-74z"/>
<path d="M2320 430 l0 -110 75 0 75 0 0 30 c0 29 -2 30 -45 30 l-45 0 0 80 0
80 -30 0 -30 0 0 -110z"/>
<path d="M2510 430 l0 -110 75 0 c73 0 75 1 75 24 0 23 -5 25 -47 28 -35 2
-48 7 -48 18 0 10 12 16 38 18 32 3 37 7 37 28 0 21 -4 24 -41 24 -55 0 -47
24 9 28 37 3 42 6 42 28 0 23 -2 24 -70 24 l-70 0 0 -110z"/>
<path d="M2712 524 c-27 -19 -29 -64 -4 -87 9 -8 33 -19 52 -24 20 -5 36 -16
38 -26 5 -24 -28 -34 -43 -14 -15 21 -65 23 -65 2 0 -28 42 -55 85 -55 55 0
85 22 85 64 0 39 -11 50 -65 68 -42 14 -62 48 -28 48 11 0 24 -5 30 -11 6 -6
23 -9 38 -7 l27 3 -22 28 c-17 22 -30 27 -64 27 -23 0 -52 -7 -64 -16z"/>
</g>
</svg>
